<svg xmlns="http://www.w3.org/2000/svg" xmlns:xlink="http://www.w3.org/1999/xlink" width="1024" height="820"><style>.p{fill:#fff}.q{stroke-width:2}.s{stroke:#888a85}</style><defs><linearGradient id="C" x1="683.1" y1="721.8" x2="659.7" y2="726.4" xlink:href="#P"><stop offset="0"/><stop offset="1" stop-opacity="0"/></linearGradient><linearGradient id="D" x1="654.5" y1="702" x2="706.4" y2="761" xlink:href="#P"><stop offset="0" stop-color="#fff"/><stop offset="1" stop-color="#fff" stop-opacity="0"/></linearGradient><linearGradient id="G" x1="633.6" y1="712.5" x2="638.1" y2="719.1" xlink:href="#P"><stop offset="0" stop-color="#fff"/><stop offset="1" stop-color="#242424"/></linearGradient><linearGradient id="I" x1="695.5" y1="729.4" x2="691.1" y2="739" xlink:href="#P"><stop offset="0" stop-color="#6e3d09"/><stop offset=".2" stop-color="#ea8113"/><stop offset=".6" stop-color="#5c3307"/><stop offset="1" stop-color="#e07c12"/></linearGradient><linearGradient id="J" x1="704.9" y1="739.8" x2="706.8" y2="735.9" xlink:href="#P"><stop offset="0" stop-color="#bdbdbd"/><stop offset=".3" stop-color="#e2e2e2"/><stop offset=".7" stop-color="#a3a3a3"/><stop offset="1" stop-color="#ddd"/></linearGradient><linearGradient id="L" x1="715.7" y1="740" x2="718.2" y2="744.6" xlink:href="#P"><stop offset="0" stop-color="#fff"/><stop offset="1" stop-color="#fff" stop-opacity="0"/></linearGradient><linearGradient id="M" x1="678.2" y1="726.2" x2="674.3" y2="727.1" xlink:href="#P"><stop offset="0"/><stop offset="1" stop-opacity="0"/></linearGradient><linearGradient id="P" gradientUnits="userSpaceOnUse"/><radialGradient id="B" cx="657.9" cy="708.8" r="58.8" xlink:href="#P"><stop offset="0" stop-color="#857c63"/><stop offset="1" stop-color="#221f19"/></radialGradient><radialGradient id="E" cx="651.8" cy="700.9" r="12.5" xlink:href="#P"><stop offset="0" stop-color="#fff"/><stop offset="1" stop-color="#b9b9b0"/></radialGradient><radialGradient id="F" cx="632.4" cy="711" r="9.4" xlink:href="#P"><stop offset="0" stop-color="#5b676b"/><stop offset="1" stop-color="#141718"/></radialGradient><radialGradient id="H" cx="669.5" cy="700.7" r="14.7" xlink:href="#P"><stop offset="0" stop-color="#fff"/><stop offset="1" stop-color="#b9b9b0"/></radialGradient><radialGradient id="K" cx="709.7" cy="742" r="10.2" xlink:href="#P"><stop offset="0" stop-color="#696969"/><stop offset="1"/></radialGradient><filter x="-50%" y="-50%" width="200%" height="200%" id="A"><feGaussianBlur stdDeviation="9.5"/></filter><g id="Z"><path d="M64.8 675.7h44a8 8 0 018 8v52a8 8 0 01-8 8h-44a8 8 0 01-8-8v-52a8 8 0 018-8z" fill="#000211"/><path d="M64.8 675.7h44a8 8 0 018 8v52a8 8 0 01-8 8h-44a8 8 0 01-8-8V725h-8.6a6.2 6.2 0 01-6.2-6.2v-16.6c0-3.4 2.8-6.2 6.2-6.2h8.6v-12.3a8 8 0 018-8zM63 738h48v-56H63v14h25.8c3.4 0 6.2 2.8 6.2 6.2v16.6c0 3.4-2.8 6.2-6.2 6.2H63v13z"/></g></defs><path d="M41 0h942a41 41 0 0141 41v738a41 41 0 01-41 41H41a41 41 0 01-41-41V41A41 41 0 0141 0z" fill="#10171d"/><use xlink:href="#Z" fill="#0cf"/><use xlink:href="#Z" x="117" fill="#f90"/><use xlink:href="#Z" x="233" fill="#ff00c4"/><path d="M53.4 705v4.7h1q1.6 0 2.4-.6.7-.6.7-1.8 0-1.2-.6-1.7-.7-.6-2-.6h-1.5zm7.5 2.2q0 2.5-1.6 3.9-1.6 1.3-4.5 1.3h-1.4v5.6H50v-15.7h5q3 0 4.4 1.2 1.5 1.2 1.5 3.7zm12.2 6.4q0 2.2-1.5 3.4-1.5 1.2-4.3 1.2-2.5 0-4.4-1v-3q1.6.7 2.7 1 1 .3 2 .3t1.7-.5q.5-.4.5-1.2 0-.5-.2-.8-.3-.4-.8-.7-.5-.4-2-1l-2.2-1.4q-.7-.6-1.1-1.4-.4-.9-.4-2 0-2 1.4-3.2 1.4-1.2 3.9-1.2 1.2 0 2.3.3 1.1.2 2.3.8l-1 2.6-2.1-.8-1.6-.2q-1 0-1.5.5-.5.4-.5 1.1 0 .5.2.8l.7.6 2 1.1q2.3 1 3.1 2.1.8 1.1.8 2.6zM89 710q0 3.9-2.2 6-2.2 2-6.4 2H76v-15.7h4.9q3.8 0 6 2 2.1 2 2.1 5.7zm-3.5 0q0-5-4.4-5h-1.8v10.3h1.4q4.8 0 4.8-5.2zm102.6 8h-3.6l-1.1-3.7h-5.7l-1.2 3.7H173l5.6-15.8h4l5.6 15.8zm-9.6-6.5h4l-1.7-5.8-.3-1-2 6.8zm15 6.5H190v-15.7h3.3V718zm102.5-8l5.4 8h-3.8l-3.7-6-3.6 6h-3.6l5.2-8.1-4.9-7.6h3.7l3.4 5.7 3.3-5.7h3.6l-5 7.8zm20.4 0q0 3.9-2.2 6-2.3 2-6.4 2h-4.5v-15.7h5q3.8 0 6 2 2 2 2 5.7zm-3.5 0q0-5-4.5-5h-1.7v10.3h1.4q4.8 0 4.8-5.2z"/><path d="M413.7 681.6l21.5-2.3 21.4 2.3 16.6 22.3-38 44.3-38-44.3 16.5-22.3z" fill="#fdb300"/><path d="M412.6 703.9l22.6 44.3-38-44.3h15.3zm45.2 0l-22.6 44.3 38-44.3h-15.4z" fill="#ea6c00"/><path d="M435.2 679.3l-21.5 2.3-1.1 22.3 22.6-24.6zm0 0l21.4 2.3 1.2 22.3-22.6-24.6z" fill="#fdd231"/><path d="M412.6 703.9h45.2l-22.6 44.3-22.6-44.3zm60.6 0l-16.6-22.3 1.2 22.3h15.4zm-76 0l16.5-22.3-1.1 22.3H397z" fill="#fdad00"/><path d="M435.2 679.3L412.6 704h45.2l-22.6-24.6z" fill="#feeeb7"/><path d="M593 747.9h-70v-66.8h70v66.8z" class="p"/><path d="M523 747.9v-66.8h70v66.8h-70zm6.7-6.7h56.5v-53.4h-56.5v53.4z" fill="#ea4c3a"/><path d="M559 691.4c.9.4.7 1 .4 4a63.8 63.8 0 01-11.7 29.8 42 42 0 01-7 8.3c-1.8 1.5-3 2-3.8 2-.8.2-1.2 0-1.4-.3-.2-.4-.3-1.1-.1-2 .2-.8.6-1.7 1.8-3 1.3-1.2 3.4-2.7 6.2-4a66 66 0 0127.8-6.2c1.6.2 3.3.4 4.7.8s2.5.7 3.6 1.4a6 6 0 012.3 2.5c.5 1 .5 2 .1 2.9a3 3 0 01-2 1.5c-.8.3-1.8.3-2.9 0-1.1-.3-2.5-1.1-3.9-2s-2.9-2.3-4.8-4.2a87 87 0 01-6.2-7c-2-2.6-3.7-5-4.8-7.1a25.9 25.9 0 01-2.1-5.5 23.3 23.3 0 01-1-9c.2-1 .4-1.8.8-2.4.3-.5.9-.8 1.2-1l.8-.1c.3 0 .5-.1.8 0 .3 0 .8.3 1.1.6h0z" fill="none" stroke="#ea4c3a" stroke-width="3.5" stroke-linejoin="round"/><path d="M693.1 729.2c0 5.2-9.6 9.4-21.4 9.4-11.9 0-21.5-4.2-21.5-9.4 0-5.1 9.6-9.3 21.5-9.3 11.8 0 21.4 4.2 21.4 9.3z" filter="url(#A)"/><path d="M644.9 688s6 12.6 20.2 12.2c29.8-.7 35-16.2 35.7-18.5.8-2.2 2-1.9 2.2.2 9.7 88-67.3 50.2-70 35.3 15.2-4.5 11.5-13.1 11.5-13.1l.4-16z" fill="url(#B)" stroke="#2e3436" class="q"/><path d="M656.2 725.2c14.2 2.8 21.4.2 25.7-3-1.1-1.5-3-3.1-3-3.1s5 1.4 6.7 3.6c1.7 2.3.6 3.7.2 6.5-1-2.5-3-3.4-3.2-4.4-3.8 5.2-13.3 5-26.4.4z" fill="url(#C)"/><path d="M701 686.7c-1.2 2-3 4.3-5.7 6.6a47.9 47.9 0 01-30.1 9.1c-9 .3-14.7-4-18.2-7.9l-.3 9.4c.3 1 .9 3-.1 5.8-1.1 3-4.6 6-10.5 8.4.5 1.1 1 2.2 2.6 3.8a54.8 54.8 0 0033.9 14c8.7.1 16.6-2.6 22-10.6 5-7.3 7.8-19.7 6.4-38.6z" opacity=".2" fill="none" stroke="url(#D)" class="q"/><path d="M643.3 710.1c4.1 5.8 4.2 12.9 0 15.8-4 3-10.7.7-14.9-5-4.1-5.8-4.2-13 0-15.9 4-3 10.7-.6 14.8 5.1z" fill="url(#F)"/><g class="q"><path d="M660.3 706.9a8.6 8.6 0 01-4.2 7.4 8.6 8.6 0 01-13-7.4 8.6 8.6 0 014.4-7.4 8.3 8.3 0 018.6 0 8.6 8.6 0 014.2 7.4z" fill="url(#E)" class="s"/><path d="M629 707c-1.3 1-2 2.6-2 5 .1 2.3 1 5.1 3 7.6 1.8 2.5 4.3 4.2 6.5 5 2.2.6 4 .4 5.4-.6 1.3-1 2-2.8 2-5.1s-1-5.1-2.8-7.6c-2-2.5-4.3-4.2-6.6-4.9s-4.1-.5-5.4.5z" opacity=".3" fill="none" stroke="url(#G)"/><path d="M679.5 707.8a10 10 0 01-5 8.8 10.1 10.1 0 01-10 0 10 10 0 01-5-8.8 10 10 0 0120 0z" fill="url(#H)" class="s"/><path d="M657.9 708.2c0 1.4-.8 2.8-2 3.5a4.1 4.1 0 01-4.2 0 4.1 4.1 0 010-7.1 4.1 4.1 0 014.1 0 4 4 0 012.1 3.6zm18.8 1.1a4.8 4.8 0 01-2.4 4.2c-1.5.9-3.4.9-4.9 0a4.8 4.8 0 01-2.4-4.2 4.9 4.9 0 119.7 0z" fill="#2e3436" stroke="#000"/><path d="M700.2 738l2-4c-7.3-5.3-20.8-9.2-20.8-9.2-2.3-1-3 1-1.4 2.4a86 86 0 0020.2 10.7z" fill="url(#I)" stroke="#673907"/><path d="M709.5 741.5l1-2.3-8-5.2h-.7l-.3-1c-1.2.8-2.9 3.5-2.4 5l.8-.3.5.5 9.1 3.3z" fill="url(#J)" class="s"/><path d="M704.2 737.1l5.4 2.3" fill="none" stroke="#fff" stroke-linecap="round" class="t"/></g><path d="M673.3 707c0 2-1.5 3.4-3.3 3.4a3.4 3.4 0 01-3.4-3.3 3.4 3.4 0 013.4-3.4c1.8 0 3.3 1.5 3.3 3.4zm-38 3.8c0 1.6-.7 3-1.9 3.9-1.1.8-2.6.8-3.7 0-1.2-.8-1.9-2.3-1.9-3.9s.7-3 1.9-3.9c1.1-.8 2.6-.8 3.7 0 1.2.8 1.9 2.3 1.9 4zm19.7-4.5a2.9 2.9 0 11-5.7 0 2.9 2.9 0 015.7 0z" class="p"/><path d="M721.3 751.3c-2.5-8.5-3.4-15.4-10-14.8-5.4.5-5.7 8.2-.2 10.3 5.3 2 10.2 4.5 10.2 4.5z" fill="url(#K)"/><path d="M711.6 737.2a2.2 2.2 0 012.2.5c.6.6.8 1.4.6 2.2a2.2 2.2 0 01-1.5 1.6 2.2 2.2 0 01-2.2-.5 2.2 2.2 0 01-.6-2.2 2.2 2.2 0 011.5-1.6zM702 734a1.5 1.5 0 011.4.4c.4.4.6 1 .5 1.5-.2.5-.6.9-1 1-.6.2-1.1 0-1.5-.3-.4-.4-.6-1-.5-1.4.2-.6.6-1 1-1.1z" opacity=".5" class="p"/><path d="M718.1 746.2s-.8-3-2.6-4.7c-.7-.6.2-1.4.8-.7a14 14 0 011.8 5.4z" opacity=".4" fill="url(#L)"/><path d="M671.5 728.7c3.2.3 6-.6 7.2-1a4.3 4.3 0 014.3-3.6l-1-2s-4.2 3-8.7 3.8l-1.8 2.8z" fill="url(#M)"/><path d="M816.7 674h-29.4a7 7 0 00-7 7v2.4h43.4V681a7 7 0 00-7-7z" fill="#706d6d"/><path d="M843.7 683.4h-83.4a8.3 8.3 0 00-8.3 8.3v42.5a8.3 8.3 0 008.3 8.3h83.4a8.3 8.3 0 008.3-8.3v-42.5a8.3 8.3 0 00-8.3-8.3z" fill="#bfbfbf"/><path d="M852 692.7H752v40.4h100v-40.4z" fill="#414141"/><path d="M802 685.9a27 27 0 100 54 27 27 0 000-54z" fill="#e8e6e6"/><path d="M802 693.8a19.2 19.2 0 1019.2 19.1 19.2 19.2 0 00-19.2-19.1z" fill="#1c1c1c"/><path d="M794.1 699.3a5.7 5.7 0 100 11.3 5.7 5.7 0 000-11.3z" fill="#686868"/><path d="M845.8 694.5a2.4 2.4 0 00-2.4 2.4c0 1.3 1 2.4 2.4 2.4a2.4 2.4 0 002.4-2.4 2.4 2.4 0 00-2.4-2.4z" fill="#da0100"/><path d="M893.2 678.8h81.4a10 10 0 0110.1 10V739a10 10 0 01-10.1 10h-81.4c-5.6 0-10.2-4.5-10.2-10v-50.2c0-5.5 4.6-10 10.2-10z"/><path d="M896 697.2q-2 0-3-.9-1.1-.8-1.5-2.7l2.7-.4q.1 1 .6 1.5.4.4 1.2.4.7 0 1.2-.5.4-.5.4-1.5v-6.5H895v-2h5v8.5q0 2-1 3-1.1 1-3.2 1zm17-8.7q0 1.2-.5 2.1-.6 1-1.6 1.5t-2.5.5h-3.1v4.4h-2.6v-12.4h5.6q2.3 0 3.5 1 1.2 1 1.2 2.9zm-2.6 0q0-2-2.4-2h-2.7v4.1h2.8q1 0 1.7-.5.6-.6.6-1.6zm10.5 6.6q1 0 2-.3 1-.2 1.5-.7v-1.7h-3.1v-2h5.5v4.6q-1 1-2.6 1.6-1.6.6-3.4.6-3 0-4.7-1.7-1.7-1.7-1.7-4.8 0-3 1.7-4.7 1.6-1.6 4.8-1.6 4.4 0 5.6 3.2l-2.4.8q-.4-1-1.3-1.5-.8-.5-2-.5-1.8 0-2.8 1.1-1 1.2-1 3.2 0 2.1 1 3.3 1 1.1 2.9 1.1zm28.8-6.6q0 1.2-.6 2.1-.5 1-1.6 1.5-1 .5-2.4.5h-3.2v4.4h-2.6v-12.4h5.7q2.2 0 3.4 1 1.3 1 1.3 2.9zm-2.7 0q0-2-2.3-2h-2.8v4.1h2.8q1.1 0 1.7-.5.6-.6.6-1.6zm15.3 8.5h-3.1l-5.5-9.6.2 2.3v7.3h-2.4v-12.4h3l5.6 9.6-.2-2.4v-7.2h2.4V697zm8.4-1.9q1 0 2-.3 1-.2 1.5-.7v-1.7h-3v-2h5.4v4.6q-1 1-2.6 1.6-1.6.6-3.3.6-3.1 0-4.8-1.7-1.6-1.7-1.6-4.8 0-3 1.6-4.7 1.7-1.6 4.8-1.6 4.4 0 5.7 3.2l-2.5.8q-.4-1-1.2-1.5-.8-.5-2-.5-1.8 0-2.8 1.1-1 1.2-1 3.2 0 2.1 1 3.3 1 1.1 2.8 1.1zm-71.2 19q1 0 2-.3 1-.2 1.5-.7v-1.7h-3v-2h5.4v4.6q-1 1-2.6 1.6-1.6.6-3.4.6-3 0-4.7-1.7-1.7-1.7-1.7-4.8 0-3 1.7-4.7 1.7-1.6 4.8-1.6 4.4 0 5.6 3.2l-2.4.8q-.4-1-1.2-1.5-.9-.5-2-.5-1.9 0-2.8 1.1-1 1.2-1 3.2 0 2.1 1 3.3 1 1.1 2.8 1.1zm10.9 1.9h-2.6v-12.4h2.6V716zm11.7-10.4h-6.6v3.8h6.4v2h-6.4v4.6h-2.6v-12.4h9.2v2zm27 0H945V716h-2.6v-10.4h-4.1v-2H949v2zm4 10.4h-2.6v-12.4h2.6V716zm11.8-10.4h-6.7v3.8h6.5v2h-6.5v4.6h-2.6v-12.4h9.3v2zm11.2 0h-6.7v3.8h6.5v2h-6.5v4.6h-2.6v-12.4h9.3v2zm-73.8 25.8q0 1.8-1.4 2.8-1.4 1-4 1-2.5 0-3.8-.9-1.4-.8-1.8-2.5l2.5-.4q.3 1 1 1.4.8.4 2.1.4 2.8 0 2.8-1.6 0-.6-.3-1l-1-.5-2.1-.5-2-.5-1-.5q-.5-.3-.8-.7-.3-.3-.5-.9l-.1-1.1q0-1.7 1.3-2.6 1.2-1 3.7-1 2.3 0 3.5.8 1.2.7 1.5 2.4l-2.5.3q-.2-.8-.8-1.2-.6-.4-1.8-.4-2.4 0-2.4 1.5 0 .5.3.8.2.3.7.5.5.3 2 .6l2.7.7q.8.3 1.2.7.5.5.7 1 .3.6.3 1.4zm12.8-8.8l-4.7 12.4h-2.7l-4.6-12.4h2.7l2.6 8 .7 2.3.2-.8.4-1.5 2.6-8h2.8zm7.3 10.5l2-.2q1-.3 1.5-.8v-1.7h-3.1v-2h5.5v4.6q-1 1-2.6 1.6-1.6.6-3.4.6-3 0-4.7-1.7-1.7-1.7-1.7-4.8 0-3 1.7-4.7 1.7-1.6 4.8-1.6 4.4 0 5.6 3.2l-2.4.8q-.4-1-1.3-1.5-.8-.5-2-.5-1.8 0-2.8 1.1-1 1.2-1 3.2 0 2.1 1 3.3 1 1.1 2.9 1.1zm29.7-4.4q0 2-.8 3.4t-2.2 2.1q-1.4.8-3.2.8h-5v-12.4h4.5q3.2 0 5 1.6 1.7 1.5 1.7 4.5zm-2.7 0q0-2-1-3-1.1-1.1-3-1.1h-2v8.4h2.3q1.7 0 2.7-1.2 1-1.1 1-3.1zm15.9 0q0 2-.8 3.4-.7 1.4-2.2 2.1-1.3.8-3.1.8H954v-12.4h4.6q3.2 0 5 1.6 1.7 1.5 1.7 4.5zm-2.7 0q0-2-1-3-1-1.1-3-1.1h-2v8.4h2.3q1.7 0 2.7-1.2 1-1.1 1-3.1zm15 2.7q0 1.8-1.4 2.8-1.4 1-4 1-2.5 0-3.9-.9-1.3-.8-1.7-2.5l2.5-.4q.3 1 1 1.4.8.4 2.1.4 2.8 0 2.8-1.6 0-.6-.3-1l-1-.5-2.1-.5-2-.5-1-.5q-.5-.3-.8-.7-.3-.3-.5-.9l-.1-1.1q0-1.7 1.2-2.6 1.3-1 3.8-1 2.3 0 3.5.8 1.2.7 1.5 2.4l-2.5.3q-.2-.8-.8-1.2-.6-.4-1.8-.4-2.4 0-2.4 1.5 0 .5.3.8l.8.5q.5.3 2 .6l2.6.7q.8.3 1.2.7.5.5.7 1 .3.6.3 1.4zm-46.9 12.7h-2.6v-2.7h2.6v2.7zm5 0h-2.5v-2.7h2.6v2.7zm5.2 0h-2.6v-2.7h2.6v2.7z" class="p"/><path class="l m p" d="M49.4 790H46v-3.6h3.2v3.6zm24-16.3q0 3.3-2.2 5.2-2.2 2-5.9 2h-6.9v9.1h-3.1v-23.3H65q4 0 6.1 1.8 2.2 1.8 2.2 5.2zm-3.2 0q0-4.5-5.5-4.5h-6.3v9.2H65q5.3 0 5.3-4.7zm26.1 9.9q0 3.2-2.5 5-2.5 1.7-7.1 1.7-8.6 0-10-5.9l3.1-.6q.6 2 2.3 3 1.7 1 4.7 1t4.7-1q1.7-1 1.7-3 0-1.2-.5-2-.5-.6-1.5-1.1-1-.5-2.2-.8l-3-.7q-2.7-.6-4.2-1.2-1.4-.6-2.2-1.3-.9-.8-1.3-1.8-.5-1-.5-2.3 0-3 2.3-4.7 2.3-1.6 6.6-1.6 4 0 6.1 1.2 2.1 1.2 3 4.2l-3.1.5q-.5-1.8-2-2.7-1.4-.8-4-.8-2.8 0-4.3 1-1.5.8-1.5 2.7 0 1 .6 1.8.6.7 1.7 1.2 1 .5 4.3 1.2l2.1.5 2 .6 2 .8q.8.5 1.4 1.2.6.7 1 1.6.3 1 .3 2.3zM121 778q0 3.6-1.4 6.3-1.4 2.7-4 4.2-2.6 1.4-6 1.4h-8.8v-23.3h7.8q6 0 9.1 3 3.3 2.9 3.3 8.4zm-3.2 0q0-4.4-2.4-6.6-2.4-2.3-7-2.3H104v18.3h5.2q2.6 0 4.5-1.2 2-1 3-3.2 1-2.1 1-5zm68 11.9h-3.3v-3.6h3.3v3.6zm25.7 0h-3.2l-2.7-6.8h-10.7l-2.7 6.8h-3.3l9.6-23.3h3.6l9.4 23.3zm-10.8-19.6l-.4-1.4-.2.5-1.2 3.5-3 7.7h8.8l-3-7.7-1-2.6zm17.2 19.6h-3.2v-23.3h3.2V790zm75.8 0h-3.3v-3.6h3.3v3.6zm25.1 0h-3.5l-7-10.2L301 790h-3.5l8.9-12.1-8.3-11.2h3.5l6.6 9.1 6.3-9.1h3.5l-8 11 8.7 12.3zm23.7-12q0 3.7-1.4 6.4t-4 4.2q-2.6 1.4-6 1.4h-8.8v-23.3h7.8q6 0 9.1 3 3.3 2.9 3.3 8.4zm-3.2 0q0-4.2-2.4-6.5t-6.9-2.3h-4.5v18.3h5.2q2.6 0 4.5-1.2 2-1 3-3.2 1.1-2.1 1.1-5zm49 12H385v-3.6h3.2v3.6zm19-5q0 2.6-2 4-1.9 1.3-5.3 1.3t-5.2-1q-1.8-1.2-2.4-3.5l2.6-.5q.4 1.4 1.6 2.1 1.2.7 3.3.7 2.3 0 3.4-.7 1-.7 1-2.1 0-1-.7-1.7t-2.4-1.1l-2.1-.6q-2.6-.7-3.7-1.3-1-.6-1.7-1.6-.6-.9-.6-2.2 0-2.4 1.8-3.7 1.7-1.3 5-1.3 3 0 4.8 1 1.8 1 2.2 3.4l-2.7.3q-.2-1.2-1.3-1.8-1-.7-3-.7t-3 .7q-.9.6-.9 1.8 0 .8.4 1.3t1.2.8q.8.4 3.3 1 2.4.6 3.4 1l1.7 1.2q.6.6 1 1.4.2.8.2 1.8zm18.3 5H422l-6.1-8.2-2.2 1.8v6.4h-3v-24.6h3v15.4l7.9-8.7h3.5l-7.3 7.7 7.7 10.2zm17.4-8.3h-13q0 3 1.3 4.7 1.3 1.7 3.7 1.7 2 0 3.1-.8 1.2-.8 1.6-2l2.7.8q-1.6 4.2-7.4 4.2-4 0-6-2.3-2.1-2.4-2.1-7 0-4.5 2-6.9 2.1-2.4 6-2.4 8 0 8 9.6v.4zm-12.9-2.3h9.8q-.3-2.8-1.5-4.1-1.2-1.3-3.4-1.3t-3.5 1.4q-1.3 1.5-1.4 4zm23.6 8.3v2.2q-1.5.4-3 .4-3.6 0-3.6-4v-12H445V772h2.2l.9-4h2v4h3.3v2.1H450v11.4q0 1.3.4 1.8t1.5.5l1.7-.2zm4.8-6.8q0 3.6 1.1 5.4 1.2 1.7 3.5 1.7 1.5 0 2.6-.9 1-.8 1.3-2.6l3 .2q-.3 2.5-2.1 4-2 1.6-4.8 1.6-3.8 0-5.7-2.3-2-2.4-2-7 0-4.5 2-6.9 2-2.4 5.7-2.4 2.8 0 4.6 1.5 1.8 1.4 2.3 3.9l-3.1.2q-.2-1.5-1.2-2.3-1-1-2.7-1-2.4 0-3.4 1.6t-1 5.3zm17.7-5.8q1-1.7 2.4-2.5 1.3-.9 3.4-.9 3 0 4.3 1.5 1.4 1.4 1.4 4.8v12h-3v-11.4q0-1.9-.4-2.8-.3-.9-1.1-1.3t-2.2-.4q-2.1 0-3.4 1.4-1.3 1.5-1.3 4V790h-3v-24.6h3v8.5l-.1 1.2zm48.5 14.9h-3.3v-3.6h3.3v3.6zm24-16.3q0 3.3-2.2 5.2-2.1 2-5.9 2h-6.8v9.1h-3.2v-23.3h9.8q4 0 6.1 1.8 2.2 1.8 2.2 5.2zm-3.2 0q0-4.5-5.5-4.5h-6.3v9.2h6.5q5.3 0 5.3-4.7zm28 4.4q0 3.6-1.4 6.3-1.4 2.7-4 4.2-2.6 1.4-6 1.4h-8.8v-23.3h7.8q5.9 0 9.1 3 3.3 2.9 3.3 8.4zm-3.2 0q0-4.4-2.4-6.6-2.4-2.3-7-2.3h-4.4v18.3h5.2q2.6 0 4.5-1.2 2-1 3-3.2 1-2.1 1-5zm24.2-8.9H581v8.7h13v2.6h-13v9.5h-3.2v-23.3h16.6v2.5zM640 790h-3.2v-3.6h3.2v3.6zm25.1 0h-3.5l-7-10.2-7.2 10.2H644l9-12.1-8.3-11.2h3.5l6.5 9.1 6.4-9.1h3.5l-8 11L665 790zm14-21.1q-4 0-6.1 2.5-2.2 2.5-2.2 6.8t2.3 7q2.2 2.5 6 2.5 5 0 7.5-4.8l2.6 1.3q-1.5 3-4.1 4.6-2.6 1.5-6 1.5-3.6 0-6.2-1.4-2.6-1.5-4-4.2-1.3-2.8-1.3-6.5 0-5.6 3-8.7 3-3.2 8.4-3.2 3.7 0 6.3 1.5 2.5 1.4 3.7 4.3l-3 1q-.9-2-2.7-3.1-1.8-1.1-4.3-1.1zm30.8.3h-13.5v8.7h13.1v2.6h-13v9.5h-3.2v-23.3h16.6v2.5zm81.2 20.8h-3.7l-6-9.7H774v9.7h-3.2v-23.3h11q4 0 6.1 1.7 2.2 1.8 2.2 5 0 2.5-1.6 4.3-1.5 1.8-4.1 2.2L791 790zm-4.1-16.6q0-2-1.4-3.1t-4-1.1H774v8.6h7.6q2.5 0 3.9-1.2 1.4-1.1 1.4-3.2zm28.3 16.6h-3.2l-2.7-6.8h-10.7L796 790h-3.2l9.5-23.3h3.6l9.4 23.3zm-10.8-19.6l-.4-1.4-.2.5-1.2 3.5-3 7.7h8.8l-3-7.7-1-2.6zm41.7-3.7l-7 23.3h-3.7l-4-14.8q-.5-1.4-1.2-5l-.8 3.2L825 790h-3.8l-7-23.3h3.4l4.2 14.8q.8 2.8 1.4 5.7l.9-4 4.6-16.5h3l4.2 14.5 1.4 6 .2-.6.7-3 4.7-17h3.3zm77.7 23.3h-3.3l-2.7-6.8h-10.6l-2.7 6.8h-3.3l9.5-23.3h3.7l9.4 23.3zM913 770.4l-.5-1.4-.1.5-1.3 3.5-3 7.7h8.8l-3-7.7-1-2.6zm32.7 19.6h-3.9l-12.5-19.9v1.6l.2 2.8V790h-2.9v-23.3h3.7l12.7 20-.2-4.7v-15.3h2.9V790zm24.7-23.3l-9 13.6v9.7h-3.2v-9.7l-9-13.6h3.5l7.1 11 7.1-11h3.5z"/><path fill="#e6e6e6" d="M347.8 199h-19V95.1h37q12 0 20.1 3.6 8.3 3.5 12.5 11 4.3 7.4 4.3 19 0 11.7-4.2 19.3-4.2 7.6-12.4 11.3-8.2 3.6-19.9 3.6h-18.4V199zm0-88v36H364q9.7 0 14.5-4.3 5-4.4 5-13.7 0-9.4-5-13.7-5-4.3-15-4.3h-15.7zm84 88h-18.4V87.7h18.4v48l-4.1-3.3q4.6-3.3 10.1-6 5.5-2.8 13.2-2.8 9.8 0 16 4.4 6 4.3 9 12 2.9 7.6 2.9 17.7V199h-18.4v-40q0-10.3-3.4-15.3-3.3-5-10.9-5-6.4 0-10.6 3-4 3-7.2 8.2l3.4-10V199zm97.2 1.5q-12 0-20.6-5.3-8.5-5.2-13-14t-4.5-19.1q0-10.5 4.5-19.3 4.5-8.9 13-14.1 8.5-5.4 20.6-5.4 12.1 0 20.7 5.4 8.5 5.2 13 14 4.5 8.9 4.5 19.4 0 10.3-4.5 19-4.5 8.9-13 14.1-8.6 5.3-20.7 5.3zm0-15.2q9.3 0 14.3-6.4 5-6.5 5-16.9 0-10.4-5-17t-14.3-6.6q-9.2 0-14.2 6.7-5 6.5-5 17 0 10.3 5 16.8 5 6.4 14.3 6.4zm87.5 15.2h-13.2q-7 0-11.4-2.8-4.4-3-6.5-7.4-2-4.4-2-9.3v-41h-10.6l1.7-15.2h8.9v-16.3l18.4-2v18.3H618v15.1h-16.3v33.6q0 5.6.6 8.1.7 2.5 3 3.1 2.5.7 7.7.7h5l-1.6 15zm47.3 0q-12 0-20.6-5.3-8.5-5.2-13-14t-4.5-19.1q0-10.5 4.4-19.3 4.6-8.9 13-14.1 8.6-5.4 20.7-5.4t20.7 5.4q8.5 5.2 13 14 4.5 8.9 4.5 19.4 0 10.3-4.6 19-4.4 8.9-13 14.1-8.5 5.3-20.6 5.3zm0-15.2q9.3 0 14.3-6.4 5-6.5 5-16.9 0-10.4-5-17t-14.3-6.6q-9.2 0-14.2 6.7-5 6.5-5 17 0 10.3 5 16.8 5 6.4 14.2 6.4zm69.3 49.6h-18.4V124.8h14.9l3.5 12.3-5.5-2q5.2-5.2 11.2-8.3 6-3.2 14.7-3.2 10.9 0 18.3 5.3 7.4 5.2 11.2 14 3.9 8.8 3.9 19.1 0 10.4-3.9 19.2-3.8 8.8-11.2 14-7.4 5.3-18.3 5.3-8.7 0-14.1-2.4t-11-7.6l4.8-3.7V235zm17.6-49.6q8.2 0 12.7-6.4 4.6-6.5 4.6-16.9 0-10.3-4.6-16.8-4.5-6.5-12.7-6.5-6.4 0-10.5 3-4 3-6 8.3-2 5.1-2 12 0 7 2 12.2 2 5.2 6 8.2 4 3 10.5 3zm84.7 15.2q-13.4 0-22.4-5.4-8.9-5.4-13.4-14.2-4.4-9-4.4-19.5 0-10.1 4.1-18.7 4.3-8.6 12.4-13.8 8-5.3 19.7-5.3 10.7 0 17.8 4.4 7.1 4.4 10.7 11.7 3.6 7.3 3.6 16.1 0 2.5-.3 5-.3 2.4-1 5.1h-47.9q1 7 4.3 11.2 3.4 4.2 8.1 6.2 4.9 2 10.3 2 6.5 0 12-1.6 5.6-1.7 10.3-4.4l1 15.5q-4.3 2.3-10.6 4-6.3 1.7-14.3 1.7zm-20.6-47h30q0-3.4-1.3-6.7-1.3-3.5-4.2-5.8-3-2.3-7.9-2.3-7.1 0-11.2 4.2-4 4.2-5.4 10.5zm77.3 47q-6 0-10.8-2.6-5-2.7-7.8-7.7-2.9-5-2.9-12 0-6.3 2.9-10.7 3-4.6 7.7-7.5 4.8-3 10.4-4.8 5.6-1.8 11-2.6 5.5-.8 9.7-1-.3-6.3-3.3-9.2-3-3-10-3-5 0-9.8 1.5-4.7 1.3-10.6 4.2l-1.6-15q6.7-3.2 13.3-4.9 6.8-1.6 13.7-1.6 8.3 0 14.3 3t9.3 9.5q3.3 6.6 3.3 17.3v20q0 5.6.5 8.2.5 2.4 2 3 1.3.7 4 .7h2.4l-1.7 15.2h-6.6q-4.2 0-7.5-1-3.2-1.2-5.5-3.1-2.3-2-3.7-4.5-3.6 4-9.8 6.4-6.2 2.2-12.9 2.2zm7.7-14.1q2.5 0 6.1-1.3 3.7-1.3 6.6-4v-17q-5.2.2-10.4 1.7t-8.7 4.4q-3.5 2.9-3.5 7.3 0 4.5 2.4 6.7 2.3 2.2 7.5 2.2z"/><path d="M130 59.3h117.2a28.2 28.2 0 0128.2 28.3v117.2a28.2 28.2 0 01-28.2 28.2H148l-.3-74.8h-.1v-.5a50.8 50.8 0 0150.4-51.3c16.7 0 30.2 13.7 30.2 30.7S214.8 168 198 168c-5.6 0-10-4.6-10-10.3 0-5.6 4.4-10.2 10-10.2s10-4.6 10-10.3a10 10 0 00-10-10.2c-16.7 0-30.2 13.7-30.2 30.8s13.5 30.7 30.2 30.7c27.9 0 50.4-23 50.4-51.3A50.8 50.8 0 00198 85.8c-39 0-70.6 32.1-70.6 71.9v.6h-.1l.3 74.6a28.2 28.2 0 01-25.9-28.1V87.6A28.2 28.2 0 01130 59.3z" fill="#18a497"/></svg>